<svg xmlns="http://www.w3.org/2000/svg" xmlns:xlink="http://www.w3.org/1999/xlink" width="700" zoomAndPan="magnify" viewBox="0 0 525 225" height="300" preserveAspectRatio="xMidYMid meet" version="1.0"><defs><g/></defs><g fill="#ff5c20" fill-opacity="1"><g transform="translate(3.373728, 135.010694)"><g><path d="M 20.484375 0 L 20.484375 -1.140625 C 20.484375 -1.140625 20.15625 -1.269531 19.5 -1.53125 C 18.851562 -1.800781 18.207031 -2.378906 17.5625 -3.265625 C 16.914062 -4.160156 16.59375 -5.554688 16.59375 -7.453125 L 16.59375 -23.078125 L 32.0625 -23.078125 L 32.0625 -7.046875 C 32.0625 -5.265625 31.734375 -3.953125 31.078125 -3.109375 C 30.429688 -2.273438 29.785156 -1.738281 29.140625 -1.5 C 28.492188 -1.257812 28.171875 -1.140625 28.171875 -1.140625 L 28.171875 0 L 48.578125 0 L 48.578125 -1.140625 C 48.578125 -1.140625 48.25 -1.269531 47.59375 -1.53125 C 46.945312 -1.800781 46.300781 -2.378906 45.65625 -3.265625 C 45.007812 -4.160156 44.6875 -5.554688 44.6875 -7.453125 L 44.6875 -40.078125 C 44.6875 -42.015625 45.007812 -43.425781 45.65625 -44.3125 C 46.300781 -45.207031 46.945312 -45.773438 47.59375 -46.015625 C 48.25 -46.265625 48.578125 -46.390625 48.578125 -46.390625 L 48.578125 -47.515625 L 28.171875 -47.515625 L 28.171875 -46.390625 C 28.171875 -46.390625 28.492188 -46.253906 29.140625 -45.984375 C 29.785156 -45.710938 30.429688 -45.15625 31.078125 -44.3125 C 31.734375 -43.476562 32.0625 -42.195312 32.0625 -40.46875 L 32.0625 -25.171875 L 16.59375 -25.171875 L 16.59375 -40.078125 C 16.59375 -42.015625 16.914062 -43.425781 17.5625 -44.3125 C 18.207031 -45.207031 18.851562 -45.773438 19.5 -46.015625 C 20.15625 -46.265625 20.484375 -46.390625 20.484375 -46.390625 L 20.484375 -47.515625 L 0 -47.515625 L 0 -46.390625 C 0 -46.390625 0.320312 -46.253906 0.96875 -45.984375 C 1.613281 -45.710938 2.257812 -45.15625 2.90625 -44.3125 C 3.5625 -43.476562 3.890625 -42.195312 3.890625 -40.46875 L 3.890625 -7.046875 C 3.890625 -5.265625 3.5625 -3.953125 2.90625 -3.109375 C 2.257812 -2.273438 1.613281 -1.738281 0.96875 -1.5 C 0.320312 -1.257812 0 -1.140625 0 -1.140625 L 0 0 Z M 20.484375 0 "/></g></g></g><g fill="#ff5c20" fill-opacity="1"><g transform="translate(62.063119, 135.010694)"><g><path d="M 27.203125 -47.515625 L 7.359375 -7.046875 C 6.765625 -5.640625 5.984375 -4.503906 5.015625 -3.640625 C 4.046875 -2.773438 3.140625 -2.15625 2.296875 -1.78125 C 1.460938 -1.40625 0.882812 -1.191406 0.5625 -1.140625 L 0 0 L 11.734375 0 L 12.3125 -1.140625 C 12.3125 -1.140625 12.050781 -1.285156 11.53125 -1.578125 C 11.019531 -1.878906 10.65625 -2.429688 10.4375 -3.234375 C 10.226562 -4.046875 10.5 -5.234375 11.25 -6.796875 L 14.65625 -13.84375 L 31.09375 -13.84375 L 34.5625 -6.875 C 35.269531 -5.414062 35.539062 -4.28125 35.375 -3.46875 C 35.21875 -2.664062 34.921875 -2.085938 34.484375 -1.734375 C 34.054688 -1.390625 33.734375 -1.191406 33.515625 -1.140625 L 34.078125 0 L 54 0 L 53.421875 -1.140625 C 52.023438 -1.398438 50.8125 -2.054688 49.78125 -3.109375 C 48.757812 -4.160156 47.765625 -5.6875 46.796875 -7.6875 Z M 22.90625 -30.515625 L 30.109375 -15.953125 L 15.703125 -15.953125 Z M 22.90625 -30.515625 "/></g></g></g><g fill="#ff5c20" fill-opacity="1"><g transform="translate(126.176212, 135.010694)"><g><path d="M 0 -47.515625 L 0 -46.390625 C 0 -46.390625 0.320312 -46.265625 0.96875 -46.015625 C 1.613281 -45.773438 2.257812 -45.234375 2.90625 -44.390625 C 3.5625 -43.554688 3.890625 -42.25 3.890625 -40.46875 L 3.890625 -7.046875 C 3.890625 -5.316406 3.5625 -4.03125 2.90625 -3.1875 C 2.257812 -2.351562 1.613281 -1.800781 0.96875 -1.53125 C 0.320312 -1.269531 0 -1.140625 0 -1.140625 L 0 0 L 20.484375 0 L 20.484375 -1.140625 C 20.484375 -1.140625 20.15625 -1.257812 19.5 -1.5 C 18.851562 -1.738281 18.207031 -2.300781 17.5625 -3.1875 C 16.914062 -4.082031 16.59375 -5.503906 16.59375 -7.453125 L 16.59375 -19.515625 L 23.390625 -19.515625 C 30.628906 -19.515625 36.125 -20.765625 39.875 -23.265625 C 43.625 -25.773438 45.5 -29.328125 45.5 -33.921875 C 45.5 -37.703125 44.378906 -40.5625 42.140625 -42.5 C 39.898438 -44.445312 36.863281 -45.769531 33.03125 -46.46875 C 29.195312 -47.164062 24.878906 -47.515625 20.078125 -47.515625 Z M 20.890625 -45.328125 C 25.203125 -45.328125 28.25 -44.222656 30.03125 -42.015625 C 31.8125 -39.804688 32.703125 -37.050781 32.703125 -33.75 C 32.703125 -31.539062 32.3125 -29.503906 31.53125 -27.640625 C 30.75 -25.785156 29.316406 -24.300781 27.234375 -23.1875 C 25.160156 -22.082031 22.179688 -21.53125 18.296875 -21.53125 L 16.59375 -21.53125 L 16.59375 -39.09375 C 16.644531 -40.769531 16.914062 -42.050781 17.40625 -42.9375 C 17.894531 -43.832031 18.472656 -44.453125 19.140625 -44.796875 C 19.816406 -45.148438 20.398438 -45.328125 20.890625 -45.328125 Z M 20.890625 -45.328125 "/></g></g></g><g fill="#ff5c20" fill-opacity="1"><g transform="translate(181.222812, 135.010694)"><g><path d="M 0 -47.515625 L 0 -46.390625 C 0 -46.390625 0.320312 -46.265625 0.96875 -46.015625 C 1.613281 -45.773438 2.257812 -45.234375 2.90625 -44.390625 C 3.5625 -43.554688 3.890625 -42.25 3.890625 -40.46875 L 3.890625 -7.046875 C 3.890625 -5.316406 3.5625 -4.03125 2.90625 -3.1875 C 2.257812 -2.351562 1.613281 -1.800781 0.96875 -1.53125 C 0.320312 -1.269531 0 -1.140625 0 -1.140625 L 0 0 L 20.484375 0 L 20.484375 -1.140625 C 20.484375 -1.140625 20.15625 -1.257812 19.5 -1.5 C 18.851562 -1.738281 18.207031 -2.300781 17.5625 -3.1875 C 16.914062 -4.082031 16.59375 -5.503906 16.59375 -7.453125 L 16.59375 -19.515625 L 23.390625 -19.515625 C 30.628906 -19.515625 36.125 -20.765625 39.875 -23.265625 C 43.625 -25.773438 45.5 -29.328125 45.5 -33.921875 C 45.5 -37.703125 44.378906 -40.5625 42.140625 -42.5 C 39.898438 -44.445312 36.863281 -45.769531 33.03125 -46.46875 C 29.195312 -47.164062 24.878906 -47.515625 20.078125 -47.515625 Z M 20.890625 -45.328125 C 25.203125 -45.328125 28.25 -44.222656 30.03125 -42.015625 C 31.8125 -39.804688 32.703125 -37.050781 32.703125 -33.75 C 32.703125 -31.539062 32.3125 -29.503906 31.53125 -27.640625 C 30.75 -25.785156 29.316406 -24.300781 27.234375 -23.1875 C 25.160156 -22.082031 22.179688 -21.53125 18.296875 -21.53125 L 16.59375 -21.53125 L 16.59375 -39.09375 C 16.644531 -40.769531 16.914062 -42.050781 17.40625 -42.9375 C 17.894531 -43.832031 18.472656 -44.453125 19.140625 -44.796875 C 19.816406 -45.148438 20.398438 -45.328125 20.890625 -45.328125 Z M 20.890625 -45.328125 "/></g></g></g><g fill="#ff5c20" fill-opacity="1"><g transform="translate(236.269402, 135.010694)"><g><path d="M 22.1875 -45.25 L 25.015625 -45.25 C 26.796875 -45.25 28.453125 -44.859375 29.984375 -44.078125 C 31.523438 -43.296875 32.890625 -42.335938 34.078125 -41.203125 C 35.265625 -40.066406 36.273438 -38.921875 37.109375 -37.765625 C 37.953125 -36.609375 38.585938 -35.632812 39.015625 -34.84375 C 39.453125 -34.0625 39.671875 -33.671875 39.671875 -33.671875 L 40.640625 -34.25 L 38.375 -47.515625 L 0 -47.515625 L 0 -46.390625 C 0 -46.390625 0.320312 -46.253906 0.96875 -45.984375 C 1.613281 -45.710938 2.257812 -45.15625 2.90625 -44.3125 C 3.5625 -43.476562 3.890625 -42.195312 3.890625 -40.46875 L 3.890625 -7.046875 C 3.890625 -5.265625 3.5625 -3.953125 2.90625 -3.109375 C 2.257812 -2.273438 1.613281 -1.738281 0.96875 -1.5 C 0.320312 -1.257812 0 -1.140625 0 -1.140625 L 0 0 L 38.375 0 L 40.640625 -13.28125 L 39.671875 -13.84375 C 39.671875 -13.84375 39.453125 -13.453125 39.015625 -12.671875 C 38.585938 -11.890625 37.953125 -10.929688 37.109375 -9.796875 C 36.273438 -8.660156 35.265625 -7.507812 34.078125 -6.34375 C 32.890625 -5.1875 31.523438 -4.21875 29.984375 -3.4375 C 28.453125 -2.65625 26.796875 -2.265625 25.015625 -2.265625 L 22.34375 -2.265625 C 21.914062 -2.265625 21.238281 -2.382812 20.3125 -2.625 C 19.394531 -2.875 18.546875 -3.441406 17.765625 -4.328125 C 16.984375 -5.222656 16.59375 -6.640625 16.59375 -8.578125 L 16.59375 -24.203125 L 17.484375 -24.203125 C 19.210938 -24.203125 20.585938 -23.929688 21.609375 -23.390625 C 22.640625 -22.847656 23.421875 -22.226562 23.953125 -21.53125 C 24.492188 -20.832031 24.859375 -20.210938 25.046875 -19.671875 C 25.242188 -19.128906 25.34375 -18.859375 25.34375 -18.859375 L 26.46875 -19.03125 L 26.46875 -30.84375 L 25.34375 -31 C 25.34375 -31 25.242188 -30.726562 25.046875 -30.1875 C 24.859375 -29.65625 24.492188 -29.035156 23.953125 -28.328125 C 23.421875 -27.628906 22.640625 -27.007812 21.609375 -26.46875 C 20.585938 -25.925781 19.210938 -25.65625 17.484375 -25.65625 L 16.59375 -25.65625 L 16.59375 -38.9375 C 16.644531 -40.769531 16.992188 -42.128906 17.640625 -43.015625 C 18.296875 -43.910156 19.050781 -44.503906 19.90625 -44.796875 C 20.769531 -45.097656 21.53125 -45.25 22.1875 -45.25 Z M 22.1875 -45.25 "/></g></g></g><g fill="#ff5c20" fill-opacity="1"><g transform="translate(286.458973, 135.010694)"><g><path d="M 17.15625 -47.515625 L 0 -47.515625 L 0 -46.390625 C 0 -46.390625 0.320312 -46.289062 0.96875 -46.09375 C 1.613281 -45.90625 2.257812 -45.40625 2.90625 -44.59375 C 3.5625 -43.789062 3.890625 -42.414062 3.890625 -40.46875 L 3.890625 -7.125 C 3.890625 -5.238281 3.5625 -3.875 2.90625 -3.03125 C 2.257812 -2.195312 1.613281 -1.671875 0.96875 -1.453125 C 0.320312 -1.242188 0 -1.140625 0 -1.140625 L 0 0 L 12.46875 0 L 12.46875 -1.140625 C 12.46875 -1.140625 12.144531 -1.257812 11.5 -1.5 C 10.851562 -1.738281 10.203125 -2.273438 9.546875 -3.109375 C 8.898438 -3.953125 8.578125 -5.265625 8.578125 -7.046875 L 8.578125 -37.15625 L 33.671875 0 L 38.375 0 L 38.375 -40.46875 C 38.375 -42.195312 38.695312 -43.476562 39.34375 -44.3125 C 39.988281 -45.15625 40.632812 -45.710938 41.28125 -45.984375 C 41.925781 -46.253906 42.25 -46.390625 42.25 -46.390625 L 42.25 -47.515625 L 29.703125 -47.515625 L 29.703125 -46.390625 C 29.703125 -46.390625 30.023438 -46.289062 30.671875 -46.09375 C 31.328125 -45.90625 31.976562 -45.40625 32.625 -44.59375 C 33.269531 -43.789062 33.59375 -42.414062 33.59375 -40.46875 L 33.671875 -16.515625 L 17.8125 -40.640625 C 16.894531 -42.097656 16.4375 -43.226562 16.4375 -44.03125 C 16.4375 -44.84375 16.625 -45.425781 17 -45.78125 C 17.375 -46.132812 17.671875 -46.335938 17.890625 -46.390625 Z M 17.15625 -47.515625 "/></g></g></g><g fill="#ff5c20" fill-opacity="1"><g transform="translate(338.834217, 135.010694)"><g><path d="M 0 -47.515625 L 0 -46.390625 C 0 -46.390625 0.320312 -46.253906 0.96875 -45.984375 C 1.613281 -45.710938 2.257812 -45.15625 2.90625 -44.3125 C 3.5625 -43.476562 3.890625 -42.195312 3.890625 -40.46875 L 3.890625 -7.046875 C 3.890625 -5.265625 3.5625 -3.953125 2.90625 -3.109375 C 2.257812 -2.273438 1.613281 -1.738281 0.96875 -1.5 C 0.320312 -1.257812 0 -1.140625 0 -1.140625 L 0 0 L 20.484375 0 L 20.484375 -1.140625 C 20.484375 -1.140625 20.15625 -1.269531 19.5 -1.53125 C 18.851562 -1.800781 18.207031 -2.378906 17.5625 -3.265625 C 16.914062 -4.160156 16.59375 -5.554688 16.59375 -7.453125 L 16.59375 -40.078125 C 16.59375 -42.015625 16.914062 -43.425781 17.5625 -44.3125 C 18.207031 -45.207031 18.851562 -45.773438 19.5 -46.015625 C 20.15625 -46.265625 20.484375 -46.390625 20.484375 -46.390625 L 20.484375 -47.515625 Z M 0 -47.515625 "/></g></g></g><g fill="#ff5c20" fill-opacity="1"><g transform="translate(369.433718, 135.010694)"><g><path d="M 17.15625 -47.515625 L 0 -47.515625 L 0 -46.390625 C 0 -46.390625 0.320312 -46.289062 0.96875 -46.09375 C 1.613281 -45.90625 2.257812 -45.40625 2.90625 -44.59375 C 3.5625 -43.789062 3.890625 -42.414062 3.890625 -40.46875 L 3.890625 -7.125 C 3.890625 -5.238281 3.5625 -3.875 2.90625 -3.03125 C 2.257812 -2.195312 1.613281 -1.671875 0.96875 -1.453125 C 0.320312 -1.242188 0 -1.140625 0 -1.140625 L 0 0 L 12.46875 0 L 12.46875 -1.140625 C 12.46875 -1.140625 12.144531 -1.257812 11.5 -1.5 C 10.851562 -1.738281 10.203125 -2.273438 9.546875 -3.109375 C 8.898438 -3.953125 8.578125 -5.265625 8.578125 -7.046875 L 8.578125 -37.15625 L 33.671875 0 L 38.375 0 L 38.375 -40.46875 C 38.375 -42.195312 38.695312 -43.476562 39.34375 -44.3125 C 39.988281 -45.15625 40.632812 -45.710938 41.28125 -45.984375 C 41.925781 -46.253906 42.25 -46.390625 42.25 -46.390625 L 42.25 -47.515625 L 29.703125 -47.515625 L 29.703125 -46.390625 C 29.703125 -46.390625 30.023438 -46.289062 30.671875 -46.09375 C 31.328125 -45.90625 31.976562 -45.40625 32.625 -44.59375 C 33.269531 -43.789062 33.59375 -42.414062 33.59375 -40.46875 L 33.671875 -16.515625 L 17.8125 -40.640625 C 16.894531 -42.097656 16.4375 -43.226562 16.4375 -44.03125 C 16.4375 -44.84375 16.625 -45.425781 17 -45.78125 C 17.375 -46.132812 17.671875 -46.335938 17.890625 -46.390625 Z M 17.15625 -47.515625 "/></g></g></g><g fill="#ff5c20" fill-opacity="1"><g transform="translate(421.808941, 135.010694)"><g><path d="M 26.390625 0 C 28.929688 0 31.238281 -0.132812 33.3125 -0.40625 C 35.382812 -0.675781 37.429688 -0.914062 39.453125 -1.125 C 41.484375 -1.34375 43.632812 -1.375 45.90625 -1.21875 L 45.90625 -2.421875 C 45.90625 -2.421875 45.578125 -2.539062 44.921875 -2.78125 C 44.273438 -3.03125 43.628906 -3.613281 42.984375 -4.53125 C 42.335938 -5.445312 42.015625 -6.851562 42.015625 -8.75 L 42.015625 -16.671875 C 42.015625 -18.617188 42.335938 -20.035156 42.984375 -20.921875 C 43.628906 -21.816406 44.273438 -22.382812 44.921875 -22.625 C 45.578125 -22.863281 45.90625 -22.984375 45.90625 -22.984375 L 45.90625 -24.203125 L 21.609375 -24.203125 L 19.75 -13.203125 L 20.5625 -12.703125 C 20.5625 -12.703125 20.882812 -13.269531 21.53125 -14.40625 C 22.175781 -15.539062 23.117188 -16.796875 24.359375 -18.171875 C 25.609375 -19.546875 27.066406 -20.640625 28.734375 -21.453125 C 29.054688 -21.617188 29.40625 -21.644531 29.78125 -21.53125 C 30.164062 -21.425781 30.476562 -21.046875 30.71875 -20.390625 C 30.96875 -19.742188 31.09375 -18.640625 31.09375 -17.078125 L 31.09375 -7.046875 C 31.09375 -5.960938 30.820312 -5.125 30.28125 -4.53125 C 29.738281 -3.9375 29.113281 -3.53125 28.40625 -3.3125 C 27.707031 -3.101562 27.117188 -3 26.640625 -3 C 24.203125 -3 21.929688 -3.957031 19.828125 -5.875 C 17.722656 -7.789062 16.023438 -10.351562 14.734375 -13.5625 C 13.441406 -16.769531 12.796875 -20.316406 12.796875 -24.203125 C 12.796875 -28.085938 13.347656 -31.625 14.453125 -34.8125 C 15.554688 -38 17.09375 -40.546875 19.0625 -42.453125 C 21.03125 -44.367188 23.257812 -45.328125 25.75 -45.328125 C 27.632812 -45.328125 29.085938 -44.910156 30.109375 -44.078125 C 31.140625 -43.242188 31.828125 -42.234375 32.171875 -41.046875 C 32.523438 -39.859375 32.59375 -38.707031 32.375 -37.59375 C 32.164062 -36.488281 31.738281 -35.671875 31.09375 -35.140625 C 33.945312 -34.597656 36.25 -34.945312 38 -36.1875 C 39.757812 -37.425781 41.285156 -39.046875 42.578125 -41.046875 C 40.742188 -42.984375 38.410156 -44.554688 35.578125 -45.765625 C 32.742188 -46.984375 29.46875 -47.59375 25.75 -47.59375 C 20.457031 -47.59375 15.878906 -46.523438 12.015625 -44.390625 C 8.160156 -42.265625 5.191406 -39.40625 3.109375 -35.8125 C 1.035156 -32.226562 0 -28.222656 0 -23.796875 C 0 -19.484375 1.050781 -15.515625 3.15625 -11.890625 C 5.257812 -8.273438 8.28125 -5.398438 12.21875 -3.265625 C 16.164062 -1.140625 20.890625 -0.0507812 26.390625 0 Z M 26.390625 0 "/></g></g></g><g fill="#ff5c20" fill-opacity="1"><g transform="translate(477.826942, 135.010694)"><g><path d="M 22.09375 -47.4375 C 20.207031 -47.4375 18.253906 -47.234375 16.234375 -46.828125 C 14.210938 -46.421875 12.347656 -45.757812 10.640625 -44.84375 C 8.941406 -43.925781 7.566406 -42.6875 6.515625 -41.125 C 5.460938 -39.5625 4.9375 -37.617188 4.9375 -35.296875 C 4.9375 -33.140625 5.488281 -31.332031 6.59375 -29.875 C 7.695312 -28.414062 9.140625 -27.1875 10.921875 -26.1875 C 12.703125 -25.1875 14.566406 -24.226562 16.515625 -23.3125 L 17.640625 -22.828125 C 19.585938 -21.960938 21.4375 -21.03125 23.1875 -20.03125 C 24.945312 -19.03125 26.378906 -17.800781 27.484375 -16.34375 C 28.585938 -14.894531 29.140625 -13.085938 29.140625 -10.921875 C 29.140625 -8.984375 28.679688 -7.457031 27.765625 -6.34375 C 26.847656 -5.238281 25.703125 -4.441406 24.328125 -3.953125 C 22.953125 -3.472656 21.5625 -3.234375 20.15625 -3.234375 C 17.675781 -3.234375 15.734375 -3.769531 14.328125 -4.84375 C 12.921875 -5.925781 11.945312 -7.25 11.40625 -8.8125 C 10.875 -10.382812 10.660156 -11.953125 10.765625 -13.515625 C 10.867188 -15.078125 11.191406 -16.398438 11.734375 -17.484375 C 12.273438 -18.566406 12.925781 -19.109375 13.6875 -19.109375 C 12.0625 -19.316406 10.734375 -19.109375 9.703125 -18.484375 C 8.679688 -17.867188 7.804688 -17.035156 7.078125 -15.984375 C 6.347656 -14.929688 5.671875 -13.8125 5.046875 -12.625 C 4.429688 -11.4375 3.734375 -10.316406 2.953125 -9.265625 C 2.171875 -8.210938 1.1875 -7.414062 0 -6.875 C 1.082031 -5.414062 2.472656 -4.242188 4.171875 -3.359375 C 5.867188 -2.472656 7.675781 -1.769531 9.59375 -1.25 C 11.507812 -0.738281 13.359375 -0.390625 15.140625 -0.203125 C 16.921875 -0.015625 18.429688 0.078125 19.671875 0.078125 C 23.984375 0.078125 27.8125 -0.285156 31.15625 -1.015625 C 34.507812 -1.742188 37.15625 -3.09375 39.09375 -5.0625 C 41.039062 -7.03125 42.015625 -9.875 42.015625 -13.59375 C 42.015625 -16.5625 41.335938 -19.003906 39.984375 -20.921875 C 38.640625 -22.835938 36.914062 -24.390625 34.8125 -25.578125 C 32.707031 -26.765625 30.46875 -27.773438 28.09375 -28.609375 C 25.71875 -29.453125 23.476562 -30.265625 21.375 -31.046875 C 19.269531 -31.828125 17.539062 -32.769531 16.1875 -33.875 C 14.84375 -34.976562 14.171875 -36.394531 14.171875 -38.125 C 14.171875 -40.34375 14.882812 -42.113281 16.3125 -43.4375 C 17.738281 -44.757812 19.664062 -45.421875 22.09375 -45.421875 C 23.769531 -45.421875 25.160156 -45 26.265625 -44.15625 C 27.367188 -43.320312 28.191406 -42.296875 28.734375 -41.078125 C 29.273438 -39.867188 29.519531 -38.707031 29.46875 -37.59375 C 29.414062 -36.488281 29.066406 -35.671875 28.421875 -35.140625 C 31.273438 -34.597656 33.566406 -34.945312 35.296875 -36.1875 C 37.023438 -37.425781 38.5625 -39.046875 39.90625 -41.046875 C 38.070312 -42.984375 35.722656 -44.53125 32.859375 -45.6875 C 30.003906 -46.851562 26.414062 -47.4375 22.09375 -47.4375 Z M 22.09375 -47.4375 "/></g></g></g><g fill="#ffffff" fill-opacity="1"><g transform="translate(202.374719, 162.027946)"><g><path d="M 20.8125 -25.203125 C 20.164062 -24.171875 19.78125 -23.046875 19.65625 -21.828125 C 19.5 -19.984375 20.144531 -18.476562 21.59375 -17.3125 C 22.59375 -16.539062 23.695312 -15.953125 24.90625 -15.546875 C 27.25 -14.710938 29.644531 -14.15625 32.09375 -13.875 C 34.03125 -13.613281 35.976562 -13.421875 37.9375 -13.296875 C 38.550781 -13.265625 39.171875 -13.238281 39.796875 -13.21875 C 41.910156 -13.21875 44.015625 -13.5625 46.109375 -14.25 C 48.453125 -15.050781 50.859375 -15.546875 53.328125 -15.734375 C 53.359375 -15.734375 53.375 -15.734375 53.375 -15.734375 C 53.726562 -15.753906 54.085938 -15.765625 54.453125 -15.765625 C 54.691406 -15.765625 54.910156 -15.753906 55.109375 -15.734375 C 55.453125 -15.703125 55.734375 -15.601562 55.953125 -15.4375 C 56.179688 -15.269531 56.296875 -15.09375 56.296875 -14.90625 C 56.296875 -14.644531 56.21875 -14.4375 56.0625 -14.28125 C 55.914062 -14.132812 55.738281 -14.019531 55.53125 -13.9375 C 54.96875 -13.65625 54.40625 -13.453125 53.84375 -13.328125 C 52.363281 -12.992188 50.894531 -12.710938 49.4375 -12.484375 C 48.320312 -12.273438 47.210938 -12.144531 46.109375 -12.09375 C 45.148438 -12.09375 44.21875 -11.972656 43.3125 -11.734375 C 42.40625 -11.503906 41.515625 -11.238281 40.640625 -10.9375 C 36.210938 -9.414062 31.859375 -7.71875 27.578125 -5.84375 C 23.304688 -3.976562 19.140625 -1.84375 15.078125 0.5625 C 13.554688 1.425781 12.070312 2.359375 10.625 3.359375 C 9.1875 4.359375 7.8125 5.4375 6.5 6.59375 C 5.925781 7.101562 5.398438 7.628906 4.921875 8.171875 C 4.554688 8.554688 4.242188 8.984375 3.984375 9.453125 C 3.453125 10.378906 3.3125 11.171875 3.5625 11.828125 C 3.820312 12.484375 4.46875 12.929688 5.5 13.171875 C 6.363281 13.347656 7.25 13.445312 8.15625 13.46875 C 8.363281 13.46875 8.585938 13.457031 8.828125 13.4375 C 10.804688 13.28125 12.765625 13.007812 14.703125 12.625 C 16.648438 12.238281 18.582031 11.785156 20.5 11.265625 C 25.84375 9.765625 31.101562 8.066406 36.28125 6.171875 C 37.125 5.828125 37.910156 5.390625 38.640625 4.859375 C 44.097656 1.160156 49.875 -1.972656 55.96875 -4.546875 C 58.507812 -5.609375 61.125 -6.5 63.8125 -7.21875 C 64.945312 -7.570312 66.109375 -7.75 67.296875 -7.75 C 67.484375 -7.789062 67.648438 -7.789062 67.796875 -7.75 C 68.234375 -7.75 68.675781 -7.675781 69.125 -7.53125 C 69.425781 -7.394531 69.5 -7.164062 69.34375 -6.84375 C 69.113281 -6.457031 68.78125 -6.171875 68.34375 -5.984375 C 64.414062 -4.046875 60.457031 -2.160156 56.46875 -0.328125 C 52.488281 1.492188 48.46875 3.207031 44.40625 4.8125 C 43.863281 5.007812 43.316406 5.226562 42.765625 5.46875 C 41.585938 5.9375 40.394531 6.390625 39.1875 6.828125 C 38.40625 7.109375 37.679688 7.492188 37.015625 7.984375 C 34.867188 9.503906 32.785156 11.085938 30.765625 12.734375 C 28.742188 14.378906 26.800781 16.144531 24.9375 18.03125 C 24.914062 18.0625 24.882812 18.101562 24.84375 18.15625 C 24.707031 18.3125 24.5625 18.4375 24.40625 18.53125 C 24.25 18.632812 24.070312 18.675781 23.875 18.65625 C 23.8125 18.65625 23.757812 18.65625 23.71875 18.65625 C 23.613281 18.675781 23.503906 18.675781 23.390625 18.65625 C 23.285156 18.65625 23.175781 18.632812 23.0625 18.59375 C 22.957031 18.5625 22.875 18.515625 22.8125 18.453125 C 22.769531 18.390625 22.75 18.289062 22.75 18.15625 C 22.75 18.03125 22.757812 17.925781 22.78125 17.84375 C 22.988281 17.5 23.222656 17.203125 23.484375 16.953125 C 26.003906 14.492188 28.671875 12.203125 31.484375 10.078125 C 31.585938 9.992188 31.71875 9.941406 31.875 9.921875 C 31.914062 9.890625 31.96875 9.875 32.03125 9.875 C 31.820312 9.75 31.628906 9.675781 31.453125 9.65625 C 31.191406 9.675781 30.929688 9.738281 30.671875 9.84375 C 30.648438 9.84375 30.609375 9.851562 30.546875 9.875 C 30.085938 10.007812 29.640625 10.148438 29.203125 10.296875 C 27.285156 10.921875 25.378906 11.503906 23.484375 12.046875 C 22.453125 12.328125 21.023438 12.679688 19.203125 13.109375 C 17.378906 13.535156 15.40625 13.914062 13.28125 14.25 C 11.15625 14.582031 9.140625 14.75 7.234375 14.75 C 5.328125 14.75 3.765625 14.46875 2.546875 13.90625 C 0.847656 12.96875 0.332031 11.582031 1 9.75 C 1.34375 8.9375 1.835938 8.195312 2.484375 7.53125 C 3.554688 6.28125 4.769531 5.164062 6.125 4.1875 C 8.101562 2.675781 10.171875 1.273438 12.328125 -0.015625 C 14.484375 -1.304688 16.679688 -2.519531 18.921875 -3.65625 C 24.378906 -6.46875 29.992188 -8.90625 35.765625 -10.96875 C 36.265625 -11.125 36.75 -11.304688 37.21875 -11.515625 C 37.21875 -11.515625 37.226562 -11.523438 37.25 -11.546875 C 37.269531 -11.546875 37.289062 -11.585938 37.3125 -11.671875 C 37.34375 -11.722656 37.375 -11.769531 37.40625 -11.8125 C 36.851562 -11.976562 36.304688 -12.0625 35.765625 -12.0625 C 35.535156 -12.0625 35.289062 -12.070312 35.03125 -12.09375 C 34.570312 -12.144531 34.097656 -12.195312 33.609375 -12.25 C 33.265625 -12.300781 32.929688 -12.335938 32.609375 -12.359375 C 29.617188 -12.671875 26.6875 -13.265625 23.8125 -14.140625 C 22.375 -14.554688 21.039062 -15.1875 19.8125 -16.03125 C 17.101562 -17.988281 16.289062 -20.554688 17.375 -23.734375 C 17.9375 -25.304688 18.769531 -26.710938 19.875 -27.953125 C 21.269531 -29.546875 22.796875 -30.988281 24.453125 -32.28125 C 30.253906 -36.875 36.410156 -40.734375 42.921875 -43.859375 C 49.429688 -46.984375 56.316406 -49.320312 63.578125 -50.875 C 67.085938 -51.601562 70.632812 -51.96875 74.21875 -51.96875 C 74.476562 -51.96875 74.722656 -51.96875 74.953125 -51.96875 C 76.929688 -51.9375 78.851562 -51.679688 80.71875 -51.203125 C 82.59375 -50.722656 84.421875 -50.070312 86.203125 -49.25 C 87.109375 -48.863281 87.90625 -48.328125 88.59375 -47.640625 C 89.019531 -47.273438 89.28125 -46.820312 89.375 -46.28125 C 89.40625 -46.09375 89.351562 -45.925781 89.21875 -45.78125 C 89.09375 -45.644531 88.9375 -45.578125 88.75 -45.578125 C 88.644531 -45.578125 88.546875 -45.578125 88.453125 -45.578125 C 88.390625 -45.578125 88.335938 -45.578125 88.296875 -45.578125 C 87.890625 -45.554688 87.554688 -45.6875 87.296875 -45.96875 C 86.566406 -46.84375 85.722656 -47.515625 84.765625 -47.984375 C 83.816406 -48.460938 82.828125 -48.882812 81.796875 -49.25 C 81.722656 -49.28125 81.644531 -49.304688 81.5625 -49.328125 C 78.957031 -50.265625 76.328125 -50.710938 73.671875 -50.671875 C 72.253906 -50.671875 70.835938 -50.570312 69.421875 -50.375 C 64.023438 -49.65625 58.828125 -48.382812 53.828125 -46.5625 C 48.835938 -44.75 43.988281 -42.53125 39.28125 -39.90625 C 36.632812 -38.425781 34.066406 -36.832031 31.578125 -35.125 C 29.085938 -33.414062 26.710938 -31.53125 24.453125 -29.46875 C 23.035156 -28.21875 21.820312 -26.796875 20.8125 -25.203125 Z M 63.703125 -5.875 L 63.8125 -5.8125 Z M 47.65625 1.34375 C 47.0625 1.644531 47.09375 1.675781 47.75 1.4375 C 48.40625 1.207031 49.40625 0.816406 50.75 0.265625 C 52.101562 -0.285156 53.5625 -0.890625 55.125 -1.546875 C 56.6875 -2.203125 58.070312 -2.785156 59.28125 -3.296875 C 60.5 -3.816406 61.273438 -4.171875 61.609375 -4.359375 C 62.097656 -4.597656 62.570312 -4.84375 63.03125 -5.09375 C 63.09375 -5.125 63.144531 -5.148438 63.1875 -5.171875 C 63.300781 -5.210938 63.367188 -5.28125 63.390625 -5.375 C 63.410156 -5.46875 63.421875 -5.550781 63.421875 -5.625 C 63.242188 -5.550781 63.0625 -5.488281 62.875 -5.4375 C 62.78125 -5.4375 62.691406 -5.421875 62.609375 -5.390625 C 59.148438 -4.253906 55.800781 -2.878906 52.5625 -1.265625 C 51.320312 -0.640625 50.097656 0.00390625 48.890625 0.671875 C 48.472656 0.898438 48.0625 1.125 47.65625 1.34375 Z M 32.03125 9.84375 C 32.03125 9.84375 32.039062 9.84375 32.0625 9.84375 C 32.0625 9.84375 32.050781 9.84375 32.03125 9.84375 Z M 32.03125 9.75 C 32.070312 9.78125 32.097656 9.796875 32.109375 9.796875 C 32.128906 9.796875 32.140625 9.785156 32.140625 9.765625 C 32.140625 9.753906 32.128906 9.742188 32.109375 9.734375 C 32.097656 9.722656 32.085938 9.722656 32.078125 9.734375 C 32.066406 9.742188 32.050781 9.75 32.03125 9.75 Z M 32.03125 9.75 "/></g></g></g><g fill="#ffffff" fill-opacity="1"><g transform="translate(272.34549, 162.027946)"><g><path d="M 11.21875 -14.796875 C 11.113281 -14.546875 10.984375 -14.300781 10.828125 -14.0625 C 8.921875 -10.96875 6.753906 -8.09375 4.328125 -5.4375 C 3.992188 -5.050781 3.632812 -4.703125 3.25 -4.390625 C 2.882812 -4.140625 2.5 -3.957031 2.09375 -3.84375 C 0.9375 -3.644531 0.265625 -4.109375 0.078125 -5.234375 C 0.0234375 -5.941406 0.0234375 -6.640625 0.078125 -7.328125 C 0.078125 -7.648438 0.078125 -7.960938 0.078125 -8.265625 C 0.078125 -8.265625 0.09375 -8.265625 0.125 -8.265625 C 0.125 -8.472656 0.125 -8.675781 0.125 -8.875 C 0.125 -9.394531 0.125 -9.910156 0.125 -10.421875 C 0.125 -10.703125 0.132812 -10.988281 0.15625 -11.28125 C 0.289062 -11.925781 0.613281 -12.257812 1.125 -12.28125 C 1.6875 -12.257812 2 -11.863281 2.0625 -11.09375 C 2.0625 -10.882812 2.039062 -10.691406 2 -10.515625 C 1.976562 -10.328125 1.96875 -10.15625 1.96875 -10 C 1.925781 -8.863281 1.890625 -7.71875 1.859375 -6.5625 C 1.859375 -6.300781 1.972656 -6.144531 2.203125 -6.09375 C 2.285156 -6.09375 2.359375 -6.109375 2.421875 -6.140625 C 2.484375 -6.179688 2.535156 -6.234375 2.578125 -6.296875 C 3.265625 -7.085938 3.929688 -7.882812 4.578125 -8.6875 C 4.828125 -9 5.082031 -9.304688 5.34375 -9.609375 C 5.625 -9.972656 5.90625 -10.320312 6.1875 -10.65625 C 7.300781 -12.050781 8.421875 -13.429688 9.546875 -14.796875 C 9.671875 -14.972656 9.816406 -15.125 9.984375 -15.25 C 10.160156 -15.382812 10.378906 -15.453125 10.640625 -15.453125 C 10.847656 -15.429688 11.03125 -15.351562 11.1875 -15.21875 C 11.226562 -15.175781 11.25 -15.113281 11.25 -15.03125 C 11.25 -14.945312 11.238281 -14.867188 11.21875 -14.796875 Z M 11.21875 -14.796875 "/></g></g></g><g fill="#ffffff" fill-opacity="1"><g transform="translate(281.698366, 162.027946)"><g><path d="M 10.015625 -6.75 C 9.335938 -6.082031 8.546875 -5.507812 7.640625 -5.03125 C 6.742188 -4.5625 5.988281 -4.253906 5.375 -4.109375 C 4.769531 -3.960938 4.144531 -3.875 3.5 -3.84375 C 2.46875 -3.800781 1.519531 -3.941406 0.65625 -4.265625 C -0.769531 -4.847656 -1.265625 -5.945312 -0.828125 -7.5625 C -0.421875 -8.957031 0.40625 -10.046875 1.65625 -10.828125 C 2.914062 -11.609375 4.21875 -11.988281 5.5625 -11.96875 C 5.5625 -11.96875 5.570312 -11.96875 5.59375 -11.96875 C 5.925781 -11.988281 6.25 -11.96875 6.5625 -11.90625 C 7.070312 -11.71875 7.394531 -11.410156 7.53125 -10.984375 C 7.675781 -10.566406 7.585938 -10.097656 7.265625 -9.578125 C 6.515625 -8.441406 5.492188 -7.8125 4.203125 -7.6875 C 3.347656 -7.601562 2.519531 -7.644531 1.71875 -7.8125 C 1.570312 -7.832031 1.4375 -7.789062 1.3125 -7.6875 C 1.195312 -7.582031 1.128906 -7.453125 1.109375 -7.296875 C 0.867188 -6.285156 1.179688 -5.640625 2.046875 -5.359375 C 3.097656 -4.992188 4.191406 -4.992188 5.328125 -5.359375 C 6.640625 -5.773438 7.882812 -6.550781 9.0625 -7.6875 C 10.25 -8.820312 10.929688 -9.347656 11.109375 -9.265625 C 11.296875 -9.191406 11.351562 -8.972656 11.28125 -8.609375 C 11.125 -8.035156 10.703125 -7.414062 10.015625 -6.75 Z M 2.53125 -9.578125 C 2.457031 -9.492188 2.40625 -9.398438 2.375 -9.296875 C 2.351562 -9.203125 2.394531 -9.113281 2.5 -9.03125 C 2.90625 -8.800781 3.347656 -8.71875 3.828125 -8.78125 C 4.304688 -8.84375 4.710938 -9.023438 5.046875 -9.328125 C 5.390625 -9.628906 5.535156 -9.992188 5.484375 -10.421875 C 5.453125 -10.578125 5.367188 -10.675781 5.234375 -10.71875 C 5.109375 -10.757812 4.984375 -10.765625 4.859375 -10.734375 C 3.984375 -10.585938 3.207031 -10.203125 2.53125 -9.578125 Z M 2.53125 -9.578125 "/></g></g></g><g fill="#ffffff" fill-opacity="1"><g transform="translate(291.930273, 162.027946)"><g><path d="M 13.921875 -8.765625 C 14.109375 -8.535156 13.875 -8.109375 13.21875 -7.484375 C 12.5625 -6.867188 11.863281 -6.347656 11.125 -5.921875 C 10.382812 -5.503906 9.53125 -5.082031 8.5625 -4.65625 C 7.914062 -4.375 7.226562 -4.28125 6.5 -4.375 C 5.78125 -4.46875 5.421875 -4.90625 5.421875 -5.6875 C 5.421875 -6.476562 5.597656 -7.257812 5.953125 -8.03125 C 6.316406 -8.832031 6.394531 -9.242188 6.1875 -9.265625 C 5.988281 -9.285156 5.566406 -9.09375 4.921875 -8.6875 C 3.242188 -7.582031 1.6875 -6.320312 0.25 -4.90625 C -0.132812 -4.4375 -0.628906 -4.175781 -1.234375 -4.125 C -1.535156 -4.125 -1.769531 -4.222656 -1.9375 -4.421875 C -2.113281 -4.617188 -2.132812 -4.828125 -2 -5.046875 C -0.96875 -6.953125 0.0703125 -8.835938 1.125 -10.703125 C 1.363281 -11.085938 1.71875 -11.328125 2.1875 -11.421875 C 2.382812 -11.460938 2.566406 -11.398438 2.734375 -11.234375 C 2.898438 -11.078125 2.984375 -10.898438 2.984375 -10.703125 C 2.960938 -10.515625 2.890625 -10.289062 2.765625 -10.03125 C 2.703125 -9.882812 2.644531 -9.738281 2.59375 -9.59375 C 2.539062 -9.457031 2.519531 -9.34375 2.53125 -9.25 C 2.550781 -9.15625 2.628906 -9.125 2.765625 -9.15625 C 2.941406 -9.25 3.113281 -9.347656 3.28125 -9.453125 C 3.726562 -9.710938 4.160156 -9.960938 4.578125 -10.203125 C 4.929688 -10.410156 5.304688 -10.59375 5.703125 -10.75 C 6.109375 -10.914062 6.53125 -11.03125 6.96875 -11.09375 C 7.664062 -11.132812 8.160156 -10.972656 8.453125 -10.609375 C 8.742188 -10.253906 8.78125 -9.753906 8.5625 -9.109375 C 8.320312 -8.523438 8.078125 -7.941406 7.828125 -7.359375 C 7.503906 -6.828125 7.445312 -6.421875 7.65625 -6.140625 C 7.875 -5.859375 8.851562 -6.179688 10.59375 -7.109375 L 11.921875 -7.875 C 13.160156 -8.675781 13.828125 -8.972656 13.921875 -8.765625 Z M 13.921875 -8.765625 "/></g></g></g><g fill="#ffffff" fill-opacity="1"><g transform="translate(304.816859, 162.027946)"><g><path d="M 10.984375 -8.484375 C 9.410156 -6.640625 7.867188 -5.273438 6.359375 -4.390625 C 4.859375 -3.515625 3.25 -3.222656 1.53125 -3.515625 C -0.175781 -3.816406 -0.878906 -4.972656 -0.578125 -6.984375 C -0.367188 -7.984375 -0.0820312 -8.96875 0.28125 -9.9375 C 1.1875 -12.175781 2.101562 -14.398438 3.03125 -16.609375 C 3.332031 -17.410156 3.648438 -18.210938 3.984375 -19.015625 C 4.066406 -19.191406 4.144531 -19.367188 4.21875 -19.546875 C 4.34375 -19.835938 4.472656 -20.132812 4.609375 -20.4375 C 4.796875 -20.957031 4.585938 -21.226562 3.984375 -21.25 C 3.648438 -21.25 3.316406 -21.25 2.984375 -21.25 C 2.835938 -21.25 2.671875 -21.25 2.484375 -21.25 C 2.304688 -21.226562 2.125 -21.207031 1.9375 -21.1875 C 1.632812 -21.15625 1.332031 -21.140625 1.03125 -21.140625 C 0.726562 -21.140625 0.445312 -21.21875 0.1875 -21.375 C 0.125 -21.394531 0.0703125 -21.4375 0.03125 -21.5 C -0.0078125 -21.570312 -0.03125 -21.648438 -0.03125 -21.734375 C -0.0078125 -21.773438 0.0234375 -21.828125 0.078125 -21.890625 C 0.128906 -21.953125 0.195312 -22 0.28125 -22.03125 C 0.539062 -22.132812 0.8125 -22.207031 1.09375 -22.25 C 1.820312 -22.289062 2.539062 -22.320312 3.25 -22.34375 C 3.53125 -22.34375 3.773438 -22.34375 3.984375 -22.34375 C 4.453125 -22.34375 4.800781 -22.359375 5.03125 -22.390625 C 5.257812 -22.429688 5.441406 -22.554688 5.578125 -22.765625 C 5.722656 -22.972656 5.890625 -23.296875 6.078125 -23.734375 C 6.179688 -23.960938 6.3125 -24.21875 6.46875 -24.5 C 6.851562 -25.320312 7.238281 -26.160156 7.625 -27.015625 C 7.800781 -27.398438 7.984375 -27.773438 8.171875 -28.140625 C 8.328125 -28.503906 8.566406 -28.785156 8.890625 -28.984375 C 9.210938 -29.140625 9.488281 -29.128906 9.71875 -28.953125 C 9.789062 -28.898438 9.847656 -28.820312 9.890625 -28.71875 C 9.929688 -28.613281 9.953125 -28.519531 9.953125 -28.4375 C 9.953125 -27.976562 9.832031 -27.53125 9.59375 -27.09375 C 9.550781 -27 9.5 -26.882812 9.4375 -26.75 C 9.289062 -26.332031 9.128906 -25.90625 8.953125 -25.46875 C 8.609375 -24.675781 8.285156 -23.863281 7.984375 -23.03125 C 7.898438 -22.875 7.894531 -22.738281 7.96875 -22.625 C 8.050781 -22.507812 8.164062 -22.453125 8.3125 -22.453125 C 9.144531 -22.421875 9.960938 -22.40625 10.765625 -22.40625 C 11.171875 -22.40625 11.578125 -22.40625 11.984375 -22.40625 C 13.273438 -22.382812 13.789062 -22.207031 13.53125 -21.875 C 13.351562 -21.664062 13.160156 -21.546875 12.953125 -21.515625 C 12.753906 -21.492188 12.550781 -21.5 12.34375 -21.53125 C 12.207031 -21.53125 12.078125 -21.53125 11.953125 -21.53125 C 10.640625 -21.445312 9.335938 -21.394531 8.046875 -21.375 C 7.453125 -21.375 7.054688 -21.101562 6.859375 -20.5625 C 6.648438 -20.050781 6.441406 -19.535156 6.234375 -19.015625 C 5.941406 -18.335938 5.671875 -17.675781 5.421875 -17.03125 C 5.160156 -16.425781 4.898438 -15.8125 4.640625 -15.1875 C 3.972656 -13.613281 3.328125 -12.035156 2.703125 -10.453125 C 2.316406 -9.421875 2.015625 -8.367188 1.796875 -7.296875 C 1.304688 -5.335938 2.0625 -4.585938 4.0625 -5.046875 C 6.03125 -5.515625 8.09375 -6.929688 10.25 -9.296875 C 11.1875 -9.898438 11.429688 -9.628906 10.984375 -8.484375 Z M 10.984375 -8.484375 "/></g></g></g><g fill="#ffffff" fill-opacity="1"><g transform="translate(314.802637, 162.027946)"><g><path d="M 8.515625 -8.90625 C 6.660156 -8.21875 5.320312 -7.65625 4.5 -7.21875 C 3.90625 -6.925781 3.5625 -6.679688 3.46875 -6.484375 C 3.382812 -6.296875 3.453125 -5.945312 3.671875 -5.4375 C 3.671875 -5.40625 3.691406 -5.367188 3.734375 -5.328125 C 3.984375 -4.703125 4.132812 -4.054688 4.1875 -3.390625 C 4.269531 -2.046875 3.125 -1.101562 0.75 -0.5625 C -1.625 -0.0195312 -3.210938 0 -4.015625 -0.5 C -4.816406 -1.007812 -5.0625 -1.648438 -4.75 -2.421875 C -4.445312 -3.203125 -3.644531 -3.988281 -2.34375 -4.78125 C -1.039062 -5.582031 -0.171875 -6.15625 0.265625 -6.5 C 0.710938 -6.851562 0.847656 -7.25 0.671875 -7.6875 C 0.609375 -7.832031 0.539062 -7.984375 0.46875 -8.140625 C 0.320312 -8.503906 0.164062 -8.878906 0 -9.265625 C -0.300781 -9.960938 -0.429688 -10.648438 -0.390625 -11.328125 C -0.347656 -12.015625 -0.0976562 -12.585938 0.359375 -13.046875 C 0.828125 -13.515625 1.546875 -13.765625 2.515625 -13.796875 C 3.066406 -13.816406 3.554688 -13.742188 3.984375 -13.578125 C 4.421875 -13.410156 4.769531 -13.097656 5.03125 -12.640625 C 5.238281 -12.328125 5.171875 -12.039062 4.828125 -11.78125 C 4.609375 -11.601562 4.367188 -11.578125 4.109375 -11.703125 C 3.953125 -11.773438 3.796875 -11.875 3.640625 -12 C 3.640625 -12.039062 3.640625 -12.0625 3.640625 -12.0625 C 3.566406 -12.101562 3.503906 -12.148438 3.453125 -12.203125 C 3.378906 -12.304688 3.300781 -12.390625 3.21875 -12.453125 C 2.914062 -12.671875 2.609375 -12.734375 2.296875 -12.640625 C 1.984375 -12.554688 1.75 -12.320312 1.59375 -11.9375 C 1.488281 -11.632812 1.4375 -11.320312 1.4375 -11 C 1.46875 -10.613281 1.554688 -10.238281 1.703125 -9.875 C 1.804688 -9.65625 1.898438 -9.453125 1.984375 -9.265625 C 2.179688 -8.742188 2.34375 -8.382812 2.46875 -8.1875 C 2.601562 -8 2.757812 -7.921875 2.9375 -7.953125 C 3.125 -7.984375 4.785156 -8.578125 7.921875 -9.734375 C 8.609375 -9.960938 8.804688 -9.6875 8.515625 -8.90625 Z M 0.890625 -2.203125 C 1.710938 -2.484375 2.0625 -3.03125 1.9375 -3.84375 C 1.9375 -3.90625 1.925781 -3.972656 1.90625 -4.046875 C 1.851562 -4.492188 1.753906 -4.835938 1.609375 -5.078125 C 1.472656 -5.316406 1.160156 -5.304688 0.671875 -5.046875 C -0.546875 -4.359375 -1.671875 -3.550781 -2.703125 -2.625 C -2.773438 -2.539062 -2.84375 -2.460938 -2.90625 -2.390625 C -2.90625 -2.390625 -2.914062 -2.375 -2.9375 -2.34375 C -3.007812 -2.25 -3.019531 -2.140625 -2.96875 -2.015625 C -2.925781 -1.898438 -2.820312 -1.84375 -2.65625 -1.84375 C -1.445312 -1.65625 -0.265625 -1.773438 0.890625 -2.203125 Z M 0.890625 -2.203125 "/></g></g></g><g fill="#ffffff" fill-opacity="1"><g transform="translate(136.495726, 73.35643)"><g><path d="M 13.90625 -15.296875 L 13.90625 0 L 12.53125 0 L 12.53125 -6.921875 L 3.5625 -6.921875 L 3.5625 0 L 2.1875 0 L 2.1875 -15.296875 L 3.5625 -15.296875 L 3.5625 -8.09375 L 12.53125 -8.09375 L 12.53125 -15.296875 Z M 13.90625 -15.296875 "/></g></g></g><g fill="#ffffff" fill-opacity="1"><g transform="translate(169.798879, 73.35643)"><g><path d="M 8.1875 -15.609375 C 9.675781 -15.609375 10.953125 -15.265625 12.015625 -14.578125 C 13.078125 -13.898438 13.890625 -12.960938 14.453125 -11.765625 C 15.015625 -10.578125 15.296875 -9.207031 15.296875 -7.65625 C 15.296875 -6.113281 15.015625 -4.742188 14.453125 -3.546875 C 13.890625 -2.347656 13.078125 -1.40625 12.015625 -0.71875 C 10.953125 -0.03125 9.675781 0.3125 8.1875 0.3125 C 6.707031 0.3125 5.429688 -0.03125 4.359375 -0.71875 C 3.296875 -1.40625 2.484375 -2.347656 1.921875 -3.546875 C 1.367188 -4.742188 1.09375 -6.113281 1.09375 -7.65625 C 1.09375 -9.207031 1.367188 -10.578125 1.921875 -11.765625 C 2.484375 -12.960938 3.296875 -13.898438 4.359375 -14.578125 C 5.429688 -15.265625 6.707031 -15.609375 8.1875 -15.609375 Z M 8.1875 -0.796875 C 9.289062 -0.796875 10.257812 -1.066406 11.09375 -1.609375 C 11.925781 -2.160156 12.578125 -2.945312 13.046875 -3.96875 C 13.523438 -5 13.765625 -6.226562 13.765625 -7.65625 C 13.765625 -9.082031 13.523438 -10.304688 13.046875 -11.328125 C 12.578125 -12.347656 11.925781 -13.128906 11.09375 -13.671875 C 10.257812 -14.222656 9.289062 -14.5 8.1875 -14.5 C 7.09375 -14.5 6.125 -14.222656 5.28125 -13.671875 C 4.445312 -13.128906 3.789062 -12.347656 3.3125 -11.328125 C 2.84375 -10.304688 2.609375 -9.082031 2.609375 -7.65625 C 2.609375 -6.226562 2.84375 -5 3.3125 -3.96875 C 3.789062 -2.945312 4.445312 -2.160156 5.28125 -1.609375 C 6.125 -1.066406 7.09375 -0.796875 8.1875 -0.796875 Z M 8.1875 -0.796875 "/></g></g></g><g fill="#ffffff" fill-opacity="1"><g transform="translate(203.67844, 73.35643)"><g><path d="M 16.9375 -15.296875 L 16.9375 0 L 15.5625 0 L 15.5625 -8.25 C 15.5625 -9.207031 15.566406 -10.195312 15.578125 -11.21875 C 15.585938 -12.238281 15.597656 -13.191406 15.609375 -14.078125 C 15.316406 -13.191406 14.984375 -12.238281 14.609375 -11.21875 C 14.242188 -10.195312 13.882812 -9.210938 13.53125 -8.265625 L 10.421875 0 L 8.6875 0 L 5.5625 -8.296875 C 5.226562 -9.222656 4.878906 -10.195312 4.515625 -11.21875 C 4.148438 -12.238281 3.820312 -13.1875 3.53125 -14.0625 C 3.550781 -13.175781 3.5625 -12.222656 3.5625 -11.203125 C 3.5625 -10.191406 3.5625 -9.207031 3.5625 -8.25 L 3.5625 0 L 2.1875 0 L 2.1875 -15.296875 L 4.4375 -15.296875 L 9.59375 -1.15625 L 14.75 -15.296875 Z M 16.9375 -15.296875 "/></g></g></g><g fill="#ffffff" fill-opacity="1"><g transform="translate(240.018769, 73.35643)"><g><path d="M 12.109375 -1.125 L 12.109375 0 L 2.1875 0 L 2.1875 -15.296875 L 11.890625 -15.296875 L 11.890625 -14.171875 L 3.5625 -14.171875 L 3.5625 -8.21875 L 11.3125 -8.21875 L 11.3125 -7.078125 L 3.5625 -7.078125 L 3.5625 -1.125 Z M 12.109375 -1.125 "/></g></g></g><g fill="#ffffff" fill-opacity="1"><g transform="translate(270.52862, 73.35643)"><g><path d="M 13.328125 -14.171875 L 7.71875 -14.171875 L 7.71875 0 L 6.34375 0 L 6.34375 -14.171875 L 0.734375 -14.171875 L 0.734375 -15.296875 L 13.328125 -15.296875 Z M 13.328125 -14.171875 "/></g></g></g><g fill="#ffffff" fill-opacity="1"><g transform="translate(301.570534, 73.35643)"><g><path d="M 8.1875 -15.609375 C 9.675781 -15.609375 10.953125 -15.265625 12.015625 -14.578125 C 13.078125 -13.898438 13.890625 -12.960938 14.453125 -11.765625 C 15.015625 -10.578125 15.296875 -9.207031 15.296875 -7.65625 C 15.296875 -6.113281 15.015625 -4.742188 14.453125 -3.546875 C 13.890625 -2.347656 13.078125 -1.40625 12.015625 -0.71875 C 10.953125 -0.03125 9.675781 0.3125 8.1875 0.3125 C 6.707031 0.3125 5.429688 -0.03125 4.359375 -0.71875 C 3.296875 -1.40625 2.484375 -2.347656 1.921875 -3.546875 C 1.367188 -4.742188 1.09375 -6.113281 1.09375 -7.65625 C 1.09375 -9.207031 1.367188 -10.578125 1.921875 -11.765625 C 2.484375 -12.960938 3.296875 -13.898438 4.359375 -14.578125 C 5.429688 -15.265625 6.707031 -15.609375 8.1875 -15.609375 Z M 8.1875 -0.796875 C 9.289062 -0.796875 10.257812 -1.066406 11.09375 -1.609375 C 11.925781 -2.160156 12.578125 -2.945312 13.046875 -3.96875 C 13.523438 -5 13.765625 -6.226562 13.765625 -7.65625 C 13.765625 -9.082031 13.523438 -10.304688 13.046875 -11.328125 C 12.578125 -12.347656 11.925781 -13.128906 11.09375 -13.671875 C 10.257812 -14.222656 9.289062 -14.5 8.1875 -14.5 C 7.09375 -14.5 6.125 -14.222656 5.28125 -13.671875 C 4.445312 -13.128906 3.789062 -12.347656 3.3125 -11.328125 C 2.84375 -10.304688 2.609375 -9.082031 2.609375 -7.65625 C 2.609375 -6.226562 2.84375 -5 3.3125 -3.96875 C 3.789062 -2.945312 4.445312 -2.160156 5.28125 -1.609375 C 6.125 -1.066406 7.09375 -0.796875 8.1875 -0.796875 Z M 8.1875 -0.796875 "/></g></g></g><g fill="#ffffff" fill-opacity="1"><g transform="translate(335.450099, 73.35643)"><g><path d="M 19.953125 -15.296875 L 15.765625 0 L 13.96875 0 L 10.265625 -13.703125 L 6.359375 0 L 4.546875 0 L 0.578125 -15.296875 L 2.125 -15.296875 L 5.515625 -1.234375 L 9.375 -15.078125 L 11.21875 -15.078125 L 14.921875 -1.234375 L 18.515625 -15.296875 Z M 19.953125 -15.296875 "/></g></g></g><g fill="#ffffff" fill-opacity="1"><g transform="translate(373.231425, 73.35643)"><g><path d="M 13.5625 0 L 11.46875 0 L 3.5 -13.96875 C 3.53125 -13.019531 3.546875 -12.007812 3.546875 -10.9375 C 3.554688 -9.863281 3.5625 -8.847656 3.5625 -7.890625 L 3.5625 0 L 2.1875 0 L 2.1875 -15.296875 L 4.28125 -15.296875 L 12.265625 -1.328125 C 12.242188 -2.285156 12.222656 -3.300781 12.203125 -4.375 C 12.191406 -5.445312 12.1875 -6.457031 12.1875 -7.40625 L 12.1875 -15.296875 L 13.546875 -15.296875 Z M 13.5625 0 "/></g></g></g></svg>